<svg width="72" height="72" viewBox="0 0 72 72" fill="none" xmlns="http://www.w3.org/2000/svg">
<path fill-rule="evenodd" clip-rule="evenodd" d="M30.0123 31.4907C30.6661 31.4907 31.1951 32.0203 31.1951 32.6735V63.8685C31.1951 64.5217 30.6661 65.0513 30.0123 65.0513H4.87886C4.22569 65.0513 3.69611 64.5217 3.69611 63.8685V32.6735C3.69611 32.0203 4.22569 31.4907 4.87886 31.4907H30.0123ZM6.06161 62.6858H28.8296V33.8562H6.06161V62.6858Z" fill="black"/>
<path d="M18.6358 66.0862H16.2651C15.6114 66.0862 15.0824 66.6158 15.0824 67.2689C15.0824 67.9221 15.6114 68.4517 16.2651 68.4517H18.6358C19.289 68.4517 19.8186 67.9221 19.8186 67.2689C19.8186 66.6158 19.289 66.0862 18.6358 66.0862Z" fill="black"/>
<path fill-rule="evenodd" clip-rule="evenodd" d="M68.3293 -2.11829e-05H52.2986C50.3206 -2.11829e-05 48.6406 1.54541 48.6406 3.5234V9.75768H12.2924C8.60207 9.76865 5.61689 12.7642 5.61805 16.454V27.7946H4.89384C2.16797 27.7946 -2.24492e-05 30.062 -2.24492e-05 32.7907V66.9588C-0.00753014 68.2594 0.505881 69.5092 1.42644 70.4286C2.34642 71.348 3.59617 71.8608 4.89673 71.8521H30.9825C32.0498 71.8614 33.0737 71.434 33.8181 70.6694C34.5608 69.9036 35.039 68.9316 34.8911 67.8713V62.0944H62.4669C66.1665 62.0881 69.169 59.0983 69.1909 55.3981V51.169C69.1736 50.5049 68.6319 49.9747 67.9678 49.9712H66.2341V38.4394H68.3293C70.3073 38.4394 71.8521 36.7606 71.8521 34.7826V3.5234C71.8631 2.58552 71.4958 1.68344 70.8322 1.01987C70.1693 0.356883 69.2666 -0.010994 68.3293 -2.11829e-05ZM51.0061 7.68786H69.4866V28.8295H51.0061V7.68786ZM68.3293 2.36548H52.2986C51.6252 2.36548 51.0061 2.85002 51.0061 3.5234V5.32236H69.4866V3.5234C69.4988 3.21327 69.3804 2.91181 69.1609 2.69178C68.9409 2.47232 68.6394 2.35393 68.3293 2.36548ZM7.98355 16.454C7.98066 14.07 9.90783 12.133 12.2924 12.1232H48.6406V15.5236H12.2196C11.5665 15.5236 11.0883 16.1179 11.0883 16.771V27.7946H7.98355V16.454ZM30.9825 69.4866C31.4209 69.5005 31.8453 69.333 32.156 69.0235C32.4413 68.7249 32.5886 68.3212 32.5626 67.9094C32.5626 67.9034 32.5537 67.9014 32.5447 67.8993C32.5358 67.8973 32.5268 67.8953 32.5268 67.8892V32.7907C32.5268 31.3654 31.4272 30.1601 29.9984 30.1601H4.89673C3.47142 30.1601 2.36548 31.3654 2.36548 32.7942V66.9554C2.35682 67.6305 2.62132 68.2796 3.09835 68.7567C3.57595 69.2331 4.22566 69.4965 4.90077 69.4866H30.9825ZM30.0019 27.7946H13.4538V17.8891H48.6406V34.7826C48.6707 36.7906 50.2912 38.4105 52.2986 38.4394H58.3983V49.9712H43.9963C43.6653 49.9741 43.35 50.115 43.1265 50.3599L42.0102 51.5536C41.1901 52.4349 40.0391 52.9333 38.835 52.9281H34.8911V32.7873C34.8911 30.062 32.7307 27.7946 30.0019 27.7946ZM62.4669 59.7289C64.8607 59.7237 66.8046 57.7925 66.8254 55.3981V52.3367H44.5149L43.7497 53.1533C42.4814 54.5209 40.6998 55.2965 38.835 55.2936H34.8911V59.7289H62.4669ZM63.8686 49.9712H60.7638V38.4394H63.8686V49.9712ZM52.2986 36.0739H68.3293C69.0027 36.0739 69.4866 35.4565 69.4866 34.7826V31.1951H51.0061V34.7826C51.0344 35.4843 51.5975 36.0468 52.2986 36.0739Z" fill="black"/>
<path d="M61.9466 32.23H58.8419C58.1887 32.23 57.6591 32.7596 57.6591 33.4127C57.6591 34.0659 58.1887 34.5955 58.8419 34.5955H61.9466C62.6003 34.5955 63.1293 34.0659 63.1293 33.4127C63.1293 32.7596 62.6003 32.23 61.9466 32.23Z" fill="black"/>
</svg>
